<?xml version="1.0" standalone="no"?>
<!DOCTYPE svg PUBLIC "-//W3C//DTD SVG 20010904//EN"
 "http://www.w3.org/TR/2001/REC-SVG-20010904/DTD/svg10.dtd">
<svg version="1.0" xmlns="http://www.w3.org/2000/svg"
 width="16.000000pt" height="16.000000pt" viewBox="0 0 16.000000 16.000000"
 preserveAspectRatio="xMidYMid meet">
<metadata>
Created by potrace 1.11, written by Peter Selinger 2001-2013
</metadata>
<g transform="translate(0.000000,16.000000) scale(0.003125,-0.003125)"
fill="#000000" stroke="none">
<path d="M1385 3760 l-1170 -1170 1185 -1185 c652 -652 1192 -1185 1200 -1185
8 0 540 525 1182 1167 l1168 1168 -1187 1187 c-654 654 -1193 1188 -1198 1188
-6 0 -537 -527 -1180 -1170z m2182 -207 l-27 -28 -483 483 c-266 265 -487 482
-492 482 -13 0 -925 -912 -925 -925 0 -5 441 -451 981 -990 539 -539 985 -988
991 -999 9 -16 -55 -84 -508 -537 l-519 -519 -515 515 -515 515 28 27 27 28
483 -483 c266 -265 487 -482 492 -482 13 0 925 912 925 925 0 5 -442 451 -981
991 -540 540 -986 989 -992 999 -8 15 73 100 509 536 l519 519 515 -515 515
-515 -28 -27z"/>
</g>
</svg>
